<?xml version="1.0" encoding="UTF-8"?><svg id="Layer_1" xmlns="http://www.w3.org/2000/svg" viewBox="0 0 88.57 59.33"><defs><style>.cls-1{fill:#009ece;}</style></defs><path class="cls-1" d="m88.57,29.67c-.23.18-1.84,1.82-2.05,2.01-6.92,6.24-13.83,12.49-20.75,18.74-1.27,1.14-1.84,1.14-3.13-.02-.59-.54-1.19-1.07-1.78-1.61-.84-.78-.86-1.46-.01-2.23,1.31-1.21,2.64-2.39,3.97-3.59,4.88-4.41,9.76-8.81,14.71-13.28-.24-.23-.46-.44-.68-.65-5.91-5.34-11.81-10.67-17.72-16.01-1.2-1.09-1.2-1.64-.01-2.72.49-.45.99-.89,1.48-1.34,1.34-1.21,1.87-1.22,3.2-.02,6.93,6.26,13.87,12.53,20.8,18.79.2.18,1.77,1.75,1.97,1.93,0,.96,0-.96,0,0Z"/><path class="cls-1" d="m56.21,2.28c-.05.18-.12.45-.2.72-5.86,18.32-11.72,36.64-17.58,54.96-.41,1.29-1,1.59-2.41,1.25-.75-.18-1.51-.35-2.26-.55-1.24-.33-1.61-.93-1.26-2.06,1.31-4.12,2.62-8.23,3.93-12.35,4.57-14.28,9.14-28.55,13.71-42.83.43-1.33,1.02-1.64,2.46-1.28.81.2,1.62.38,2.42.61.77.22,1.23.67,1.19,1.54Z"/><path class="cls-1" d="m0,29.67c.23.18,1.84,1.82,2.05,2.01,6.92,6.24,13.83,12.49,20.75,18.74,1.27,1.14,1.84,1.14,3.13-.02.59-.54,1.19-1.07,1.78-1.61.84-.78.86-1.46.01-2.23-1.31-1.21-2.64-2.39-3.97-3.59-4.88-4.41-9.76-8.81-14.71-13.28.24-.23.46-.44.68-.65,5.91-5.34,11.81-10.67,17.72-16.01,1.2-1.09,1.2-1.64.01-2.72-.49-.45-.99-.89-1.48-1.34-1.34-1.21-1.87-1.22-3.2-.02C15.84,15.21,8.91,21.48,1.97,27.74,1.78,27.92.2,29.49,0,29.67,0,30.62,0,28.71,0,29.67Z"/></svg>